<svg width="16" height="18" viewBox="0 0 16 18" fill="none" xmlns="http://www.w3.org/2000/svg">
<path d="M8.44898 16.7755H2.44898C1.77551 16.7755 1.22449 16.2245 1.22449 15.551V2.44898C1.22449 1.77551 1.77551 1.22449 2.44898 1.22449H8.44898C8.78571 1.22449 9.06122 0.948979 9.06122 0.612245C9.06122 0.27551 8.78571 0 8.44898 0H2.44898C1.10204 0 0 1.10204 0 2.44898V15.551C0 16.898 1.10204 18 2.44898 18H8.44898C8.78571 18 9.06122 17.7245 9.06122 17.3878C9.06122 17.051 8.78571 16.7755 8.44898 16.7755Z" fill="#232B48"/>
<path d="M15.5816 8.90873C15.5816 8.87812 15.5816 8.87812 15.551 8.84751C15.551 8.8169 15.551 8.78628 15.5204 8.78628C15.4898 8.78628 15.5204 8.75567 15.4898 8.72506C15.4898 8.69445 15.4898 8.69445 15.4592 8.69445V8.63322L11.5408 4.37812C11.2959 4.13322 10.898 4.13322 10.6531 4.34751C10.4082 4.59241 10.4082 4.95975 10.6224 5.20465L13.5918 8.38832H5.11224C4.77551 8.38832 4.5 8.66384 4.5 9.00057C4.5 9.3373 4.77551 9.61281 5.11224 9.61281H13.5918L10.6224 12.7965C10.4082 13.0414 10.4082 13.4087 10.6531 13.6536C10.7755 13.7761 10.9286 13.8373 11.0816 13.8373C11.2653 13.8373 11.4184 13.7455 11.5408 13.623L15.4286 9.42914V9.36792C15.4592 9.36792 15.4592 9.36792 15.4592 9.3373C15.5204 9.30669 15.5204 9.30669 15.5204 9.27608C15.551 9.27608 15.551 9.24547 15.551 9.21486C15.5816 9.18424 15.5816 9.18424 15.5816 9.15363C15.5816 9.12302 15.6122 9.06179 15.6122 9.03118C15.6122 9.00057 15.5816 8.93935 15.5816 8.90873Z" fill="#232B48"/>
</svg>
