<svg width="18" height="18" viewBox="0 0 18 18" fill="none" xmlns="http://www.w3.org/2000/svg">
<path fill-rule="evenodd" clip-rule="evenodd" d="M8.27174 0C7.47465 0 6.81635 0.658364 6.81635 1.45545V1.99304C6.39259 2.1249 5.9818 2.29488 5.58876 2.50098L5.20931 2.12152C4.64549 1.5577 3.7143 1.5577 3.15048 2.12152L2.12146 3.15054C1.55766 3.71436 1.55766 4.64555 2.12146 5.20935L2.50094 5.58882C2.29484 5.98186 2.12488 6.39261 1.99298 6.81635H1.45539C0.658304 6.81635 0 7.47472 0 8.27178V9.72822C0 10.5253 0.658304 11.1836 1.45539 11.1836H1.99298C2.12484 11.6074 2.29484 12.0182 2.50094 12.4112L2.12146 12.7907C1.55766 13.3545 1.55766 14.2857 2.12146 14.8495L3.15048 15.8785C3.7143 16.4423 4.64549 16.4423 5.20931 15.8785L5.58876 15.499C5.9818 15.7051 6.39259 15.8751 6.81635 16.007V16.5446C6.81635 17.3416 7.47465 18 8.27174 18H9.7282C10.5253 18 11.1836 17.3416 11.1836 16.5446V16.007C11.6073 15.8751 12.0181 15.7051 12.4111 15.499L12.7906 15.8785C13.3544 16.4423 14.2856 16.4423 14.8495 15.8785L15.8784 14.8495C16.4423 14.2857 16.4423 13.3545 15.8784 12.7907L15.499 12.4112C15.7051 12.0182 15.8751 11.6074 16.007 11.1836H16.5445C17.3416 11.1836 17.9999 10.5253 17.9999 9.72822V8.27178C17.9999 7.47472 17.3416 6.81635 16.5445 6.81635H16.0101C15.8778 6.39195 15.7074 5.9806 15.5008 5.58704L15.8784 5.20935C16.4423 4.64553 16.4423 3.71436 15.8784 3.15054L14.8495 2.12152C14.2856 1.5577 13.3544 1.5577 12.7906 2.12152L12.413 2.4992C12.0194 2.29254 11.608 2.1221 11.1836 1.98986V1.45545C11.1836 0.658364 10.5253 0 9.7282 0H8.27174ZM8.27174 1.05885H9.7282C9.95768 1.05885 10.1248 1.22593 10.1248 1.45545V2.38962C10.1248 2.50766 10.1643 2.6223 10.2369 2.71535C10.3095 2.80839 10.4111 2.87451 10.5256 2.90318C11.1262 3.05345 11.7013 3.2918 12.2323 3.61027C12.3335 3.67098 12.4521 3.69612 12.5693 3.6817C12.6865 3.66727 12.7954 3.6141 12.8789 3.53063L13.5393 2.87025C13.7014 2.70817 13.9387 2.70817 14.1007 2.87025L15.1298 3.89922C15.2918 4.0613 15.2918 4.29863 15.1298 4.4607L14.4694 5.12107C14.3859 5.20455 14.3328 5.31353 14.3183 5.43069C14.3039 5.54785 14.329 5.66647 14.3897 5.76771C14.7082 6.29865 14.9465 6.87376 15.0968 7.47435C15.1255 7.58886 15.1916 7.6905 15.2846 7.76313C15.3777 7.83575 15.4923 7.87521 15.6104 7.87522H16.5446C16.774 7.87522 16.9412 8.0423 16.9412 8.2718V9.72824C16.9412 9.9577 16.7741 10.1248 16.5446 10.1248H15.6071C15.489 10.1249 15.3744 10.1643 15.2813 10.237C15.1882 10.3096 15.1221 10.4113 15.0935 10.5258C14.9434 11.1258 14.7057 11.7004 14.3879 12.231C14.3273 12.3322 14.3022 12.4508 14.3167 12.5679C14.3311 12.685 14.3843 12.7939 14.4677 12.8774L15.1298 13.5394C15.2918 13.7015 15.2918 13.9388 15.1298 14.1008L14.1007 15.1298C13.9387 15.2919 13.7014 15.2919 13.5393 15.1298L12.8773 14.4678C12.7939 14.3844 12.6849 14.3312 12.5678 14.3167C12.4507 14.3023 12.3321 14.3273 12.2309 14.388C11.7003 14.7058 11.1258 14.9435 10.5258 15.0936C10.4112 15.1222 10.3096 15.1883 10.2369 15.2814C10.1643 15.3744 10.1248 15.4891 10.1248 15.6072V16.5446C10.1248 16.7741 9.95772 16.9412 9.7282 16.9412H8.27174C8.04228 16.9412 7.87514 16.7741 7.87514 16.5446V15.6072C7.87513 15.4891 7.83567 15.3744 7.76302 15.2814C7.69037 15.1883 7.5887 15.1222 7.47417 15.0936C6.87418 14.9435 6.29959 14.7058 5.76903 14.388C5.66779 14.3273 5.54921 14.3023 5.43211 14.3167C5.315 14.3312 5.20609 14.3844 5.12265 14.4678L4.46062 15.1298C4.29855 15.2919 4.06124 15.2919 3.89916 15.1298L2.87019 14.1008C2.70811 13.9387 2.70811 13.7015 2.87019 13.5394L3.53221 12.8774C3.61564 12.7939 3.66881 12.685 3.68327 12.5679C3.69774 12.4508 3.67267 12.3322 3.61205 12.231C3.29424 11.7004 3.05651 11.1258 2.9065 10.5258C2.87786 10.4113 2.81176 10.3096 2.7187 10.237C2.62564 10.1643 2.51097 10.1249 2.39291 10.1248H1.45543C1.22597 10.1248 1.05885 9.95776 1.05885 9.72824V8.2718C1.05885 8.04234 1.22593 7.87522 1.45543 7.87522H2.39291C2.51097 7.87521 2.62564 7.83574 2.7187 7.76308C2.81176 7.69043 2.87786 7.58875 2.9065 7.47421C3.05657 6.87422 3.29424 6.29967 3.61205 5.76911C3.67267 5.66787 3.69774 5.54929 3.68328 5.43218C3.66882 5.31507 3.61565 5.20615 3.53221 5.12271L2.87019 4.4607C2.70811 4.29863 2.70811 4.0613 2.87019 3.89922L3.89916 2.87025C4.06124 2.70817 4.29855 2.70817 4.46062 2.87025L5.12265 3.53227C5.20609 3.6157 5.315 3.66887 5.43211 3.68333C5.54921 3.6978 5.66779 3.67273 5.76903 3.61211C6.29959 3.2943 6.87418 3.05657 7.47417 2.90654C7.5887 2.87789 7.69037 2.81178 7.76302 2.71873C7.83567 2.62567 7.87513 2.511 7.87514 2.39295V1.45549C7.87514 1.22601 8.04222 1.05885 8.27174 1.05885ZM8.99996 4.46973C6.50425 4.46973 4.46971 6.50429 4.46971 9.00002C4.46971 11.4958 6.50425 13.5303 8.99996 13.5303C11.4957 13.5303 13.5302 11.4958 13.5302 9.00002C13.5302 6.50429 11.4957 4.46973 8.99996 4.46973ZM8.99996 5.52856C10.9235 5.52856 12.4714 7.07653 12.4714 9.00002C12.4714 10.9235 10.9235 12.4714 8.99996 12.4714C7.07647 12.4714 5.52851 10.9235 5.52851 9.00002C5.52851 7.07653 7.07647 5.52856 8.99996 5.52856Z" fill="#232B48"/>
</svg>
