<svg width="24" height="24" viewBox="0 0 24 24" fill="none" xmlns="http://www.w3.org/2000/svg">
<path fill-rule="evenodd" clip-rule="evenodd" d="M5.17025 5.80708H6.30708V4.67025C6.30708 4.34932 6.4384 4.05638 6.65132 3.84425L6.65055 3.84347C6.86268 3.63133 7.15487 3.5 7.47733 3.5H15.854L16.3023 3.58858L16.3031 3.58781C16.4414 3.64531 16.5681 3.73079 16.6808 3.84347L16.6815 3.84269L18.9972 6.15841C19.2195 6.38065 19.3399 6.67281 19.3399 6.98599V18.0219C19.3399 18.6669 18.8147 19.1921 18.1697 19.1921L17.0329 19.1929V20.3297C17.0329 20.9747 16.5076 21.5 15.8626 21.5H5.17025C4.52762 21.5 4 20.9724 4 20.3297V6.97753C4 6.3349 4.52684 5.80708 5.17025 5.80708ZM7.1635 5.80708H14.4041C14.7063 5.80708 15.0234 5.93064 15.2309 6.15055L15.2316 6.14977L16.6902 7.60831C16.9124 7.83055 17.0329 8.12194 17.0329 8.43589V18.3357H18.1697C18.3414 18.3357 18.4828 18.1943 18.4828 18.0226L18.4665 6.87725C18.4098 6.73039 16.3583 4.73261 16.0748 4.44974L16.0756 4.44896L15.9738 4.37903V4.37825C15.8433 4.32541 8.29718 4.35805 7.47581 4.35805C7.38956 4.35805 7.31185 4.39379 7.25512 4.45052L7.25434 4.44974L7.16265 4.67198L7.1635 5.80708ZM7.38264 17.2299V18.087H13.6505V17.2299H7.38264ZM7.38264 11.1851V12.0422H13.6505V11.1851H7.38264ZM7.38264 14.2078V15.0649H13.6505V14.2078H7.38264ZM14.4042 6.66406H5.17037C4.99631 6.66406 4.85722 6.80316 4.85722 6.97721V20.3286C4.85722 20.5027 4.99631 20.6418 5.17037 20.6418H15.8627C16.0345 20.6418 16.1759 20.5004 16.1759 20.3286L16.1596 8.32614C16.1083 8.19327 14.8277 6.95774 14.6256 6.75571L14.6264 6.75493L14.4042 6.66406Z" fill="#232B48"/>
</svg>
