<svg width="24" height="24" viewBox="0 0 24 24" fill="none" xmlns="http://www.w3.org/2000/svg">
<path d="M19.3635 6.73297H11.7083C11.5473 6.73297 11.3948 6.661 11.2935 6.536L10.0814 5.05021C9.79352 4.69889 9.36169 4.49719 8.90811 4.50003H5.0606C3.9233 4.50098 3.00095 5.42332 3 6.56063V18.4394C3.00095 19.5767 3.9233 20.4991 5.0606 20.5H19.3636C20.5009 20.4991 21.4233 19.5767 21.4242 18.4394V8.7936C21.4233 7.65629 20.5008 6.73392 19.3635 6.73297ZM20.4544 18.4394C20.4535 19.0417 19.9658 19.5293 19.3635 19.5303H5.06053C4.45825 19.5293 3.97057 19.0417 3.96962 18.4394V6.56061C3.97057 5.95833 4.45825 5.47065 5.06053 5.4697H8.90804C9.06902 5.46875 9.22055 5.54167 9.32186 5.66572L10.534 7.15151V7.15246C10.82 7.50094 11.247 7.70264 11.6978 7.70264H19.3635C19.9658 7.70359 20.4534 8.19127 20.4544 8.79355L20.4544 18.4394Z" fill="#232B48"/>
<path d="M15.3624 13.1305H12.5576V10.3179C12.5576 10.0499 12.3407 9.83301 12.0728 9.83301C11.8048 9.83301 11.5879 10.0499 11.5879 10.3179V13.1305H8.78307C8.51507 13.1305 8.29822 13.3473 8.29822 13.6153C8.29822 13.8824 8.51507 14.1002 8.78307 14.1002H11.5879V16.9069C11.5879 17.1749 11.8048 17.3918 12.0728 17.3918C12.3408 17.3918 12.5576 17.1749 12.5576 16.9069V14.1002H15.3624C15.6304 14.1002 15.8473 13.8823 15.8473 13.6153C15.8473 13.3473 15.6304 13.1305 15.3624 13.1305Z" fill="#232B48"/>
</svg>
